<svg width="123" height="123" xmlns="http://www.w3.org/2000/svg" xmlns:xlink="http://www.w3.org/1999/xlink" overflow="hidden"><defs><clipPath id="clip0"><rect x="578" y="298" width="123" height="123"/></clipPath></defs><g clip-path="url(#clip0)" transform="translate(-578 -298)"><path d="M646.297 311.503C656.747 312.995 666.106 317.869 673.233 324.996 680.53 332.293 685.475 341.943 686.826 352.703L701.01 352.703 701.01 366.297 686.606 366.297C684.984 376.437 680.18 385.515 673.233 392.452 666.116 399.569 656.747 404.454 646.297 405.945L646.297 421 632.703 421 632.703 405.945C622.253 404.454 612.894 399.579 605.777 392.452 598.83 385.505 594.026 376.437 592.404 366.297L578 366.297 578 352.703 592.174 352.703C593.525 341.943 598.47 332.293 605.767 324.996 612.884 317.879 622.243 312.995 632.693 311.503L632.693 298 646.287 298 646.287 311.503 646.297 311.503ZM639.5 333.445C653.464 333.445 664.775 344.766 664.775 358.719 664.775 372.683 653.454 383.994 639.5 383.994 625.536 383.994 614.225 372.673 614.225 358.719 614.225 344.766 625.536 333.445 639.5 333.445L639.5 333.445ZM667.087 331.142C660.03 324.085 650.271 319.711 639.5 319.711 628.729 319.711 618.97 324.075 611.913 331.142 604.856 338.199 600.482 347.959 600.482 358.729 600.482 369.5 604.846 379.259 611.913 386.316 618.97 393.373 628.729 397.747 639.5 397.747 650.271 397.747 660.03 393.383 667.087 386.316 674.144 379.259 678.518 369.5 678.518 358.729 678.508 347.949 674.144 338.199 667.087 331.142L667.087 331.142Z" fill="#FFFFFF"/></g></svg>